<svg width="260" height="170" viewBox="0 0 260 170" fill="none" xmlns="http://www.w3.org/2000/svg">
<g clip-path="url(#clip0)">
<path d="M77.3518 168.362C98.4277 168.362 115.513 151.29 115.513 130.231C115.513 109.172 98.4277 92.0999 77.3518 92.0999C56.2759 92.0999 39.1904 109.172 39.1904 130.231C39.1904 151.29 56.2759 168.362 77.3518 168.362Z" fill="#F2F2F2"/>
<path d="M260 168.396H6.42175V168.985H260V168.396Z" fill="#2F2E41"/>
<path d="M75.7358 130.473C75.7358 158.968 58.7817 168.919 37.8692 168.919C37.3824 168.919 36.8981 168.914 36.4165 168.901C35.448 168.88 34.4874 168.837 33.5399 168.769C14.6645 167.436 0 156.972 0 130.473C0 103.05 35.0664 68.4456 37.7113 65.8764C37.7127 65.8749 37.7146 65.8739 37.7166 65.8737C37.8166 65.7738 37.8692 65.7239 37.8692 65.7239C37.8692 65.7239 75.7358 101.974 75.7358 130.473Z" fill="#3F3D56"/>
<path d="M36.4875 164.559L50.3388 145.223L36.4533 166.681L36.4165 168.901C35.448 168.88 34.4874 168.838 33.5399 168.769L35.0322 140.26L35.0216 140.04L35.048 139.997L35.1874 137.305L21.2678 115.791L35.2296 135.285L35.2638 135.856L36.3928 114.316L24.4759 92.0867L36.5376 110.532L37.7114 65.8764L37.7166 65.7239V65.8737L37.5219 101.088L49.3835 87.1271L37.4719 104.12L37.1587 123.407L48.236 104.899L37.1113 126.247L36.9376 136.968L53.018 111.205L36.8771 140.71L36.4875 164.559Z" fill="#F2F2F2"/>
<path d="M211.443 53.0486L206.179 47.5263C206.179 47.5263 200.389 38.8482 196.178 41.2149C191.968 43.5817 202.232 49.1041 202.232 49.1041L207.495 57.7821L211.443 53.0486Z" fill="#A0616A"/>
<path d="M228.023 160.078C228.023 160.078 231.971 167.704 229.076 168.23C226.181 168.756 211.969 169.545 211.706 168.756C211.443 167.967 209.337 165.337 210.917 164.285C212.496 163.234 218.812 162.445 218.812 162.445L220.918 160.341L228.023 160.078Z" fill="#2F2E41"/>
<path d="M230.129 85.6571C230.129 85.6571 238.551 96.1759 231.708 106.958L230.129 125.103C230.129 125.103 233.024 150.085 229.339 158.5L228.813 161.393H219.602L221.97 139.303C221.97 139.303 221.707 136.673 220.918 136.148C220.128 135.622 207.232 107.221 207.232 107.221C207.232 107.221 209.338 103.276 208.548 102.487C207.758 101.698 209.338 85.9201 210.127 85.3941C210.917 84.8682 230.129 85.6571 230.129 85.6571Z" fill="#2F2E41"/>
<path d="M215.127 157.711L214.075 163.76L224.339 163.234L223.023 156.659L215.127 157.711Z" fill="#A0616A"/>
<path d="M216.97 50.4189C221.33 50.4189 224.865 46.8869 224.865 42.5298C224.865 38.1728 221.33 34.6407 216.97 34.6407C212.609 34.6407 209.074 38.1728 209.074 42.5298C209.074 46.8869 212.609 50.4189 216.97 50.4189Z" fill="#A0616A"/>
<path d="M224.076 43.8447L224.865 53.3116L216.443 57.2562C216.443 57.2562 217.891 48.4467 216.838 46.0799L224.076 43.8447Z" fill="#A0616A"/>
<path d="M215.391 56.7303L216.18 53.5746L226.971 49.63C226.971 49.63 228.023 49.63 227.76 51.4708C227.497 53.3116 227.497 53.0487 227.497 53.0487C227.497 53.0487 231.182 54.6265 231.445 57.2562C231.708 59.8859 235.919 60.6748 235.656 64.6194C235.393 68.564 234.077 70.6677 234.077 70.6677C234.077 70.6677 235.393 73.8234 233.287 75.6642C233.287 75.6642 231.182 79.3458 232.234 81.9755C233.287 84.6052 234.603 89.0757 231.708 88.2868C228.813 87.4979 208.811 86.183 208.811 86.183C208.811 86.183 205.916 75.4012 209.074 71.4566C209.074 71.4566 209.074 69.0899 211.443 64.3564C213.812 59.6229 215.391 56.7303 215.391 56.7303Z" fill="#575A89"/>
<path d="M229.339 86.446C229.339 86.446 225.918 100.909 221.707 102.487C221.707 102.487 220.918 113.006 216.443 112.48C211.969 111.954 216.443 102.487 216.443 102.487L221.444 84.3422L229.339 86.446Z" fill="#A0616A"/>
<path d="M215.917 57.5192C215.917 57.5192 211.969 51.2079 210.917 52.2597C209.864 53.3116 204.6 56.4673 204.863 58.5711C205.127 60.6748 207.495 60.6748 207.495 60.6748L213.022 64.8824L215.917 57.5192Z" fill="#575A89"/>
<path d="M210.39 104.591L207.232 106.859L205.127 129.31C205.127 129.31 212.759 159.815 214.864 160.078C216.97 160.341 225.655 160.341 225.392 159.552C225.128 158.763 223.813 155.607 223.813 154.818C223.813 154.03 221.068 147.72 221.068 147.72L217.496 132.992L218.286 121.421L210.39 104.591Z" fill="#2F2E41"/>
<path d="M214.338 161.656C214.338 161.656 225.392 158.237 225.918 159.026C226.444 159.815 229.955 167.766 225.042 168.656C220.128 169.545 202.495 171.123 202.495 168.756C202.495 166.389 203.021 164.811 204.6 164.811C206.179 164.811 213.285 161.393 213.812 160.604C214.338 159.815 214.338 161.656 214.338 161.656Z" fill="#2F2E41"/>
<path d="M224.456 43.0483C224.53 42.9014 224.556 42.7348 224.529 42.5726C224.502 42.4103 224.425 42.2606 224.308 42.145C224.191 42.0294 224.04 41.9538 223.877 41.9291C223.714 41.9043 223.548 41.9317 223.402 42.0072L223.388 42.0152C223.159 42.1544 222.975 42.3581 222.861 42.6007C222.747 42.8434 222.707 43.1143 222.746 43.3796C221.797 42.4334 222.496 40.5358 221.471 39.6728C220.996 39.2734 220.226 39.1855 219.982 38.6153C219.84 38.2834 219.936 37.8899 219.811 37.5512C219.625 37.0484 219.032 36.8384 218.501 36.7594C216.833 36.5107 215.145 36.9338 213.511 37.3536C212.911 37.508 212.279 37.6795 211.841 38.1188C211.38 38.5815 211.22 39.2538 210.937 39.8424C210.655 40.431 208.801 40.3778 208.153 40.2945C207.928 39.6551 209.592 39.6069 209.727 38.9428C210.099 37.1275 208.806 35.1971 209.44 33.4561C209.822 32.4069 210.821 31.7125 211.826 31.2247C214.618 29.8836 217.805 29.6118 220.784 30.4608C221.087 30.5277 221.371 30.6646 221.611 30.8606C221.994 31.2174 222.065 31.7902 222.32 32.2469C222.9 33.2875 224.277 33.5348 225.205 34.2825C226.61 35.4149 226.769 37.4595 226.814 39.2631C226.837 40.1714 226.854 41.1152 226.481 41.9442C226.109 42.7731 225.227 43.4486 224.334 43.2749C224.376 43.2063 224.417 43.1297 224.456 43.0483Z" fill="#2F2E41"/>
<path d="M223.083 60.0817C224.102 59.3752 225.326 59.0261 226.565 59.089C227.803 59.1519 228.986 59.6232 229.928 60.4293C231.742 61.9694 233.693 64.1761 233.55 66.4602C233.287 70.6677 231.708 88.0238 229.602 88.2868C227.497 88.5498 219.865 86.446 219.865 85.1311C219.865 83.8163 221.707 82.2385 221.707 82.2385L219.47 68.8281C219.188 67.2023 219.366 65.5301 219.983 63.9997C220.601 62.4693 221.633 61.1414 222.965 60.1656C223.004 60.1375 223.044 60.1096 223.083 60.0817Z" fill="#575A89"/>
<path d="M193.741 0.00029833H130.415C127.359 0.000297161 124.394 1.03913 122.008 2.94603C119.621 4.85293 117.955 7.51442 117.283 10.493L85.2857 152.305C84.9367 153.852 84.9305 155.456 85.2677 157.005C85.6048 158.555 86.2771 160.012 87.2373 161.274C88.1976 162.536 89.4226 163.574 90.8264 164.313C92.2302 165.052 93.7789 165.476 95.3639 165.554L160.463 168.759C163.949 168.93 167.378 167.829 170.111 165.66C172.844 163.491 174.693 160.402 175.315 156.97L193.465 56.7079L194.816 57.0934L198.289 38.0899L196.899 37.7427L201.965 9.75584C202.182 8.55711 202.132 7.3253 201.818 6.14823C201.504 4.97116 200.934 3.87782 200.148 2.94614C199.363 2.01447 198.381 1.2674 197.274 0.758208C196.166 0.249014 194.96 -0.00977298 193.741 0.00029833Z" fill="#3F3D56"/>
<path d="M138.752 3.05738H131.36C129.237 3.05738 127.178 3.78281 125.525 5.11326C123.871 6.4437 122.723 8.29913 122.271 10.3715L91.5576 151.026C91.3808 151.836 91.3809 152.674 91.5581 153.484C91.7353 154.294 92.0852 155.056 92.5841 155.718C93.083 156.38 93.7191 156.927 94.4488 157.321C95.1786 157.715 95.9849 157.947 96.8127 158.002L161.701 162.251C163.532 162.371 165.343 161.813 166.788 160.684C168.233 159.555 169.212 157.934 169.537 156.13L195.744 10.7493C195.914 9.80837 195.875 8.84167 195.63 7.91746C195.385 6.99326 194.94 6.13406 194.326 5.40051C193.712 4.66696 192.945 4.07694 192.078 3.67207C191.211 3.26721 190.266 3.05738 189.309 3.05738H182.297C181.618 3.05738 180.958 3.28094 180.419 3.69346C179.881 4.10598 179.493 4.68444 179.317 5.33929C179.161 5.9174 178.819 6.42808 178.343 6.79226C177.868 7.15644 177.285 7.35381 176.686 7.35381H143.395C142.222 7.35381 141.092 6.91129 140.231 6.11473C139.37 5.31817 138.842 4.22628 138.752 3.05737L138.752 3.05738Z" fill="#5FAD2E"/>
<path d="M185.224 39.4119H118.079V39.7424H185.224V39.4119Z" fill="#2F2E41"/>
<path d="M183.239 50.153H115.433V50.4835H183.239V50.153Z" fill="#2F2E41"/>
<path d="M180.984 38.8885L179.458 36.8559L179.722 36.6579L181.041 38.4143L186.122 34.2607L186.331 34.5166L180.984 38.8885Z" fill="#2F2E41"/>
<path d="M172.218 86.8105L170.693 84.778L170.957 84.5797L172.276 86.3363L177.357 82.1824L177.566 82.4386L172.218 86.8105Z" fill="#2F2E41"/>
<path d="M107.995 86.838L107.988 87.1685L178.274 88.6557L178.281 88.3252L107.995 86.838Z" fill="#2F2E41"/>
<path d="M105.845 96.5876L105.837 96.9181L177.447 98.5706L177.455 98.2401L105.845 96.5876Z" fill="#2F2E41"/>
<path opacity="0.1" d="M149.75 124.762C149.75 128.926 148.094 132.919 145.148 135.863C142.201 138.807 138.205 140.461 134.038 140.461C129.872 140.461 125.875 138.807 122.929 135.863C119.983 132.919 118.327 128.926 118.327 124.762C118.327 124.566 118.331 124.371 118.339 124.176C118.493 120.066 120.254 116.181 123.245 113.355C126.236 110.53 130.217 108.99 134.332 109.067C138.448 109.143 142.368 110.831 145.251 113.766C148.134 116.701 149.75 120.65 149.75 124.762Z" fill="black"/>
<path opacity="0.1" d="M148.261 130.877C148.261 131.073 148.258 131.268 148.25 131.463C146.726 134.689 144.148 137.3 140.94 138.866C137.733 140.433 134.088 140.861 130.604 140.081C127.121 139.301 124.007 137.359 121.775 134.574C119.544 131.79 118.328 128.329 118.327 124.762C118.327 124.566 118.331 124.371 118.339 124.176C119.863 120.95 122.441 118.339 125.648 116.773C128.855 115.206 132.501 114.778 135.984 115.558C139.468 116.338 142.582 118.28 144.813 121.065C147.045 123.849 148.261 127.31 148.261 130.877H148.261Z" fill="black"/>
<path d="M130.859 129.082L125.273 121.64L126.596 120.649L131.146 126.711L149.061 112.066L150.108 113.345L130.859 129.082Z" fill="#F2F2F2"/>
</g>
<defs>
<clipPath id="clip0">
<rect width="260" height="170" fill="white"/>
</clipPath>
</defs>
</svg>
