<svg width="275" height="165" viewBox="0 0 275 165" fill="none" xmlns="http://www.w3.org/2000/svg">
<g clip-path="url(#clip0)">
<path d="M210.546 163.134C207.026 160.148 204.887 155.432 205.448 150.841C206.009 146.249 209.482 142.028 213.988 141.053C218.494 140.078 223.63 142.777 224.999 147.194C225.752 138.678 226.62 129.805 231.132 122.553C235.217 115.986 242.293 111.287 249.961 110.446C257.629 109.606 265.703 112.78 270.486 118.855C275.268 124.929 276.439 133.76 273.09 140.733C270.622 145.871 266.076 149.694 261.313 152.804C245.922 162.77 227.462 166.823 209.331 164.217L210.546 163.134Z" fill="#F2F2F2"/>
<path d="M262.903 112.956C256.575 118.129 250.77 123.913 245.572 130.227C237.437 140.074 230.855 151.114 226.053 162.962C225.702 163.827 227.1 164.203 227.448 163.348C235.304 144.092 247.845 127.119 263.925 113.983C264.647 113.393 263.619 112.371 262.903 112.956Z" fill="white"/>
<path d="M88.527 162.323C93.3627 158.222 96.3 151.744 95.5297 145.438C94.7594 139.131 89.9883 133.334 83.7996 131.995C77.6109 130.655 70.5562 134.362 68.6765 140.43C67.642 128.732 66.4499 116.545 60.2531 106.584C54.6421 97.5644 44.9237 91.1105 34.3912 89.9559C23.8586 88.8014 12.7692 93.1621 6.20048 101.505C-0.368278 109.848 -1.97661 121.977 2.62398 131.555C6.01307 138.611 12.257 143.863 18.799 148.135C39.6704 161.764 65.5614 167.449 90.197 163.81" fill="#F2F2F2"/>
<path d="M16.6159 93.4039C25.3066 100.508 33.2793 108.453 40.4188 117.125C47.5595 125.787 53.8461 135.125 59.1903 145.006C62.1775 150.548 64.8609 156.251 67.2287 162.087C67.7114 163.274 65.7904 163.791 65.313 162.617C61.1192 152.328 55.9306 142.475 49.8217 133.202C43.7424 123.962 36.7844 115.335 29.0454 107.444C24.6681 102.982 20.0498 98.766 15.2112 94.8136C14.2194 94.0031 15.6323 92.6001 16.6159 93.4039L16.6159 93.4039Z" fill="white"/>
<path d="M197.399 164.639H82.0259V45.8387C82.0259 20.5631 102.516 0 127.701 0H151.724C176.91 0 197.399 20.5631 197.399 45.8387V164.639Z" fill="#F2F2F2"/>
<path d="M173.376 164.639H82.0259V45.8387C82.0006 36.1537 85.0565 26.7134 90.7486 18.8924C90.9585 18.6054 91.1677 18.3221 91.3836 18.0419C94.1368 14.418 97.4132 11.2264 101.105 8.57262C101.313 8.42035 101.523 8.27073 101.735 8.1211C104.824 5.97585 108.165 4.22216 111.683 2.89993C111.892 2.82046 112.105 2.74085 112.317 2.66448C115.499 1.52504 118.797 0.744528 122.151 0.337357C122.358 0.308854 122.572 0.28655 122.785 0.264246C126.053 -0.0864342 129.349 -0.0864342 132.618 0.264246C132.83 0.28655 133.044 0.308851 133.254 0.337661C136.607 0.744859 139.904 1.52528 143.085 2.6645C143.298 2.74086 143.51 2.82047 143.72 2.90009C147.194 4.20564 150.496 5.93317 153.552 8.04412C153.765 8.1905 153.977 8.34013 154.186 8.48975C156.256 9.97206 158.199 11.6234 159.997 13.427C161.439 14.8737 162.783 16.4158 164.019 18.0429C164.235 18.3221 164.444 18.6054 164.653 18.892C170.346 26.7131 173.402 36.1535 173.376 45.8387V164.639Z" fill="#CCCCCC"/>
<path d="M165.948 111.504C168.741 111.504 171.006 109.232 171.006 106.428C171.006 103.625 168.741 101.353 165.948 101.353C163.155 101.353 160.891 103.625 160.891 106.428C160.891 109.232 163.155 111.504 165.948 111.504Z" fill="#5FAD2E"/>
<path d="M187.948 161.081H184.073L182.229 146.08L187.949 146.08L187.948 161.081Z" fill="#FFB8B8"/>
<path d="M181.305 159.969H188.778V164.692H176.599C176.599 164.072 176.721 163.457 176.957 162.884C177.194 162.312 177.54 161.791 177.977 161.352C178.414 160.914 178.933 160.566 179.504 160.329C180.075 160.091 180.687 159.969 181.305 159.969Z" fill="#2F2E41"/>
<path d="M207.23 161.081H203.354L201.511 146.08L207.23 146.08L207.23 161.081Z" fill="#FFB8B8"/>
<path d="M200.586 159.969H208.06V164.692H195.881C195.881 164.072 196.002 163.457 196.239 162.884C196.475 162.312 196.822 161.791 197.259 161.352C197.696 160.914 198.215 160.566 198.785 160.329C199.356 160.091 199.968 159.969 200.586 159.969Z" fill="#2F2E41"/>
<path d="M168.508 107.434C168.229 107.022 168.044 106.553 167.965 106.061C167.886 105.569 167.916 105.066 168.052 104.587C168.188 104.108 168.426 103.664 168.752 103.288C169.077 102.911 169.48 102.611 169.934 102.408L183.107 65.9697L189.589 69.5199L174.548 104.342C174.837 105.129 174.829 105.995 174.525 106.776C174.22 107.557 173.641 108.199 172.896 108.58C172.152 108.961 171.294 109.055 170.485 108.844C169.676 108.633 168.973 108.131 168.508 107.434Z" fill="#FFB8B8"/>
<path d="M205.25 114.281C204.819 114.033 204.448 113.693 204.162 113.286C203.877 112.879 203.683 112.413 203.596 111.923C203.509 111.432 203.53 110.929 203.658 110.447C203.785 109.966 204.017 109.518 204.336 109.137L200.255 70.5909L207.631 70.9291L209.328 108.844C209.931 109.424 210.302 110.206 210.37 111.042C210.438 111.878 210.198 112.71 209.695 113.38C209.192 114.05 208.462 114.512 207.643 114.678C206.824 114.844 205.972 114.703 205.25 114.281Z" fill="#FFB8B8"/>
<path d="M193.482 59.2203C197.769 59.2203 201.245 55.7321 201.245 51.429C201.245 47.126 197.769 43.6377 193.482 43.6377C189.194 43.6377 185.718 47.126 185.718 51.429C185.718 55.7321 189.194 59.2203 193.482 59.2203Z" fill="#FFB8B8"/>
<path d="M205.2 105.514H181.795L181.823 105.332C181.865 105.058 185.994 77.9111 182.949 69.0298C182.643 68.1571 182.67 67.2017 183.024 66.3476C183.378 65.4935 184.035 64.8011 184.867 64.4036H184.867C189.22 62.3463 197.577 59.813 204.629 65.9609C205.667 66.8805 206.478 68.0298 206.997 69.3179C207.516 70.606 207.729 71.9976 207.619 73.3827L205.2 105.514Z" fill="#5FAD2E"/>
<path d="M186.29 81.923L175.753 79.7776L180.692 68.0309C180.988 66.8932 181.721 65.9195 182.731 65.3236C183.741 64.7276 184.945 64.558 186.079 64.8519C187.214 65.1458 188.186 65.8792 188.782 66.8913C189.378 67.9034 189.55 69.1115 189.26 70.2507L186.29 81.923Z" fill="#5FAD2E"/>
<path d="M199.786 85.9066L199.153 71.3329C198.672 68.5933 200.235 66.0035 202.638 65.5802C205.042 65.1584 207.39 67.0585 207.872 69.8182L210.253 83.4359L199.786 85.9066Z" fill="#5FAD2E"/>
<path d="M204.422 103.77C208.188 118.164 208.599 136.466 207.583 156.429L202.525 155.794L193.359 117.727L188.301 156.429L182.611 156.111C180.912 135.165 179.257 117.183 181.979 105.356L204.422 103.77Z" fill="#2F2E41"/>
<path d="M198.597 57.4504C197.149 58.9987 194.459 58.1675 194.27 56.0523C194.256 55.8881 194.257 55.7228 194.274 55.5588C194.371 54.6219 194.91 53.7713 194.781 52.782C194.752 52.5358 194.661 52.3011 194.516 52.1003C193.361 50.5493 190.652 52.794 189.563 51.3899C188.895 50.529 189.68 49.1735 189.168 48.2112C188.491 46.9412 186.488 47.5677 185.231 46.8722C183.833 46.0983 183.917 43.9457 184.837 42.6364C185.959 41.0396 187.927 40.1876 189.87 40.0648C191.813 39.942 193.743 40.4692 195.557 41.1787C197.619 41.9849 199.663 43.099 200.931 44.918C202.474 47.13 202.622 50.1039 201.851 52.6905C201.381 54.2639 199.78 56.186 198.597 57.4504Z" fill="#2F2E41"/>
<path d="M265.511 164.843H32.1426C32.043 164.843 31.9476 164.803 31.8772 164.732C31.8069 164.661 31.7674 164.565 31.7674 164.465C31.7674 164.365 31.8069 164.269 31.8772 164.199C31.9476 164.128 32.043 164.088 32.1426 164.088H265.511C265.611 164.088 265.707 164.128 265.777 164.199C265.847 164.269 265.887 164.365 265.887 164.465C265.887 164.565 265.847 164.661 265.777 164.732C265.707 164.803 265.611 164.843 265.511 164.843Z" fill="#3F3D56"/>
<path d="M148.247 130.22H107.155C106.614 130.223 106.094 130.01 105.709 129.629C105.323 129.247 105.105 128.728 105.101 128.185V36.1366C105.105 35.5935 105.323 35.0742 105.709 34.6927C106.094 34.3112 106.614 34.0986 107.155 34.1015H148.247C148.788 34.0986 149.309 34.3112 149.694 34.6927C150.079 35.0742 150.298 35.5935 150.302 36.1366V128.185C150.298 128.728 150.079 129.247 149.694 129.629C149.309 130.01 148.788 130.223 148.247 130.22Z" fill="white"/>
<path d="M150.302 63.8855H105.101V64.5199H150.302V63.8855Z" fill="#CCCCCC"/>
<path d="M150.46 100.084H105.259V100.718H150.46V100.084Z" fill="#CCCCCC"/>
<path d="M119.957 34.1015H119.325V130.537H119.957V34.1015Z" fill="#CCCCCC"/>
<path d="M135.761 34.1015H135.129V130.537H135.761V34.1015Z" fill="#CCCCCC"/>
</g>
<defs>
<clipPath id="clip0">
<rect width="275" height="165" fill="white"/>
</clipPath>
</defs>
</svg>
